<?xml version="1.0" encoding="iso-8859-1"?>
<!-- Generator: Adobe Illustrator 16.0.0, SVG Export Plug-In . SVG Version: 6.00 Build 0)  -->
<!DOCTYPE svg PUBLIC "-//W3C//DTD SVG 1.1//EN" "http://www.w3.org/Graphics/SVG/1.1/DTD/svg11.dtd">
<svg version="1.1" id="Capa_1" xmlns="http://www.w3.org/2000/svg" xmlns:xlink="http://www.w3.org/1999/xlink" x="0px" y="0px"
	 width="524.093px" height="524.093px" viewBox="0 0 524.093 524.093" style="enable-background:new 0 0 524.093 524.093;"
	 xml:space="preserve" fill="#B8002E">
<g>
	<path d="M466.112,89.801c-31.199,129.7-49.6,261.301-84.5,390.5c-30.6,10.4-55.1,17.699-88.699,14.699
		c-34.9-3.699-69.2-16.5-99.8-33.699c0.6-1.199,0.6-2.4,1.2-4.301c1.8-57.5-14.7-118.699-21.4-175.6c-7.3-60-12.2-119.3-15.9-179.3
		c44.7,69.2,138.3,82,215.4,48.3c31.199-13.5,66.1-35.5,75.899-69.8c10.4-34.9-25.1-55.7-52.6-64.9c-58.8-19.6-151.2-23.9-206.9,4.9
		c-44.7,21.4-20.8,66.1,8.6,87.5c38.6,28.2,96.7,35.5,146.9,25.7c-3.7,1.2-6.7,2.4-8.6,3.1c-77.7,23.3-147.4-6.1-184.1-77.7
		c-3.7-6.7-14.7-1.8-12.9,5.5c0,0,0,0,0,0.6c-1.2,1.2-2.4,3.1-2.4,5.5c-1.8,32.4-1.2,65.5,0.6,97.9c-17.1-23.3-40.4-42.8-66.1-27.5
		c-31.8,19-35.5,72.8-36.1,105.9c-0.6,40.399,6.1,90.001,34.9,121.2c12.9,13.5,31.2,19.6,49,16.5c11-1.801,25.1-7.301,36.7-15.301
		c3.7,31.801,8.6,63,18.4,91.201c0.6,1.799,1.2,3.1,2.4,4.299c-0.6,2.4,0.6,5.5,3.1,8c44.1,33.701,153,77.102,203.2,31.201
		c3.699,0.6,7.3-0.6,9.199-4.9c51.4-127.9,67.9-267.4,97.301-400.9C493.112,81.201,469.812,74.5,466.112,89.801z M305.812,112.401
		c-28.8,1.2-58.1-6.1-83.8-19c-14.1-6.7-33-20.2-33.7-37.3c-0.6-22,50.8-25.7,63.6-26.9c47.7-4.3,108.9-4.9,153,16.5
		c28.8,14.1,22,32.4,3.699,49.6c0.601-19.6-28.8-39.8-49-46.5c-37.3-12.9-80.199-9.8-117.5,2.4c-9.8,3.1-11.6,15.9-3.1,21.4
		c32.4,22,67.9,26.3,106.5,23.9c13.5-0.6,13.5-20.2,0-21.4c-23.3-1.8-44.7-2.4-64.9-8.6c36.7-6.1,83.2-4.9,103.4,22
		C395.712,102.601,307.012,112.401,305.812,112.401z M147.312,281.301c0.6,4.9,1.2,9.801,1.2,14.699
		c-20.2,0.602-41-4.299-41.6-28.799c-0.6-9.8,4.3-19,11-26.3c6.7-7.3,15.3-9.8,23.9-11.6
		C143.612,246.5,145.412,264.201,147.312,281.301z M117.912,359.102c-12.2,3.1-23.3-1.801-31.2-11c-22-23.9-25.1-65.5-25.7-96.101
		c-0.6-28.2,1.2-66.7,20.8-88.7c18.4-21.4,45.9,17.1,59.4,39.2c0,1.2,0,3.1,0.6,4.3c-29.4,1.2-55.1,31.2-55.1,60.6
		c0,36.701,34.9,51.4,65.5,45.301c0.6,8.6,1.2,16.5,2.4,25.1C141.212,345,131.412,355.4,117.912,359.102z"/>
</g>
<g>
</g>
<g>
</g>
<g>
</g>
<g>
</g>
<g>
</g>
<g>
</g>
<g>
</g>
<g>
</g>
<g>
</g>
<g>
</g>
<g>
</g>
<g>
</g>
<g>
</g>
<g>
</g>
<g>
</g>
</svg>
