<?xml version="1.0" encoding="iso-8859-1"?>
<!-- Generator: Adobe Illustrator 16.0.0, SVG Export Plug-In . SVG Version: 6.00 Build 0)  -->
<!DOCTYPE svg PUBLIC "-//W3C//DTD SVG 1.1//EN" "http://www.w3.org/Graphics/SVG/1.1/DTD/svg11.dtd">
<svg version="1.1" id="Capa_1" xmlns="http://www.w3.org/2000/svg" xmlns:xlink="http://www.w3.org/1999/xlink" x="0px" y="0px"
	 width="540.799px" height="540.799px" viewBox="0 0 540.799 540.799" style="enable-background:new 0 0 540.799 540.799;"
	 xml:space="preserve" fill="#3366FF">
<g>
	<path d="M524.804,350.413c-1.2-28.199-8-66.699-33-84.5c-21.4-15.3-40.4,0-53.9,18.4c-1.2-25.7-6.7-49.6-19-69.2
		c-4.3-6.1-11-5.5-14.7-1.2c-1.2-0.6-1.8-1.8-3.7-1.8c-15.899-3.7-32.399,0.6-49,1.8c-28.199,1.8-56.899,1.8-85.1,1.2
		c-53.2-0.6-105.9-5.5-158.5-8.6c-1.8,0-3.7,0.6-4.9,1.8c-2.4-0.6-4.9,0-6.7,2.4c-33.7,59.4-23.3,154.2-3.1,215.4
		c24.5,74.101,90.6,118.7,167.7,114.4c67.9-3.7,117.5-57.5,145.7-115.101c12.2,11,30.6,18.4,44.1,22c15.9,4.301,32.4,1.2,45.9-8.6
		C522.304,419.613,526.604,380.413,524.804,350.413z M396.204,393.913c-20.8,60.601-68.5,116.301-134.6,124.2
		c-77.1,9.2-131.6-48.3-151.8-116.899c-17.7-61.801-2.4-118.7-2.4-179.9c51.4,12.2,106.5,15.3,159.1,17.1
		c37.3,1.2,102.2,11,135.9-10.4C412.204,286.813,416.404,335.113,396.204,393.913z M431.104,357.813c4.899-1.2,9.2-2.4,14.7-2.4
		c1.8,0,4.3,0.601,5.5,0.601c0.6,0,1.8,0.6,2.399,0.6c1.8,0.601,0.601,0,1.8,0.601c0.601,0.6,4.301,2.399,2.4,1.199
		c0.6,0.601,3.7,3.7,2.4,2.4c0.6,0.6,0.6,1.2,1.199,1.8c0,0.601,0,0.601,0.601,0.601l0,0c0,0.6,0.6,1.199,0.6,1.8l0,0c0,0,0,0,0,0.6
		c0,0.601,0,1.2,0,1.8l0,0c0,0.601-0.6,1.2-0.6,1.801l0,0c0,0,0,0.6-0.601,0.6c0,0.6-0.6,0.6-0.6,1.2c0,0-1.2,1.2-1.2,1.8l-0.6,0.6
		c-0.601,0.601-1.8,1.2-2.4,1.2c0,0,0,0-0.6,0c0,0,0,0-0.601,0c-1.199,0.601-2.399,0.601-3.699,1.2c-3.101,1.2-3.7,1.2-6.7,1.2
		c-6.7,0-12.2-1.2-19-2.4C428.104,368.813,429.304,363.313,431.104,357.813C430.503,357.813,430.503,357.813,431.104,357.813z
		 M483.804,422.014c-21.4,19-46.5-6.101-67.301-16.5c1.2-3.7,3.101-7.3,4.301-11c0,0,0,0,0.6,0c14.1,4.3,31.8,5.5,45.3-1.8
		c9.2-4.9,15.9-15.9,15.3-26.301c-1.199-11-8-20.199-17.699-23.899c-9.7-3.7-20.2-1.8-29.4,3.1c1.8-9.2,3.1-18.399,3.7-27.5
		c8.6-15.3,28.2-49,45.3-33c16.5,15.9,20.2,46.5,20.8,67.9C504.604,375.514,502.104,405.514,483.804,422.014z"/>
	<path d="M287.304,79.914c40.399-42.2-9.801-70.4-50.2-79.6c-14.7-3.1-20.8,17.7-6.1,22.6c15.3,4.9,59.4,12.2,43.5,34.9
		c-11,15.9-30,27.5-43.5,41c-34.3,33.7-17.1,66.7,25.7,79.6c10.4,3.1,17.101-12.9,7.3-17.7c-19.6-10.4-39.8-19-21.4-39.8
		C256.104,106.213,273.204,94.613,287.304,79.914z"/>
	<path d="M149.604,163.113c-31.8-22.6-19-62.4-51.4-85.7c-9.8-6.7-22-8.6-33.7-9.8c-6.1-0.6-11.6-1.2-17.7-3.1
		c-10.4-3.1-10.4-22-12.9-30c-2.4-8-14.7-8.6-16.5,0c-8.6,36.7,15.3,52,47.1,55.1c25.7,2.4,36.7,18.4,41,42.2
		c3.7,21.4,17.7,34.3,35.5,44.7C150.804,182.113,157.604,168.613,149.604,163.113z"/>
	<path d="M467.204,11.414c-22,3.1-33,18.4-30.6,40.4c1.8,15.9,6.7,31.2-9.8,42.2c-8.601,5.5-21.4,4.3-31.2,3.7
		c-12.9-0.6-31.2-3.1-41,7.3c-14.101,14.7-7.3,37.9-1.2,54.5c3.1,8.6,14.7,4.9,13.5-3.7c-3.7-20.8-8.6-39.2,16.5-38.6
		c14.7,0.6,29.4,2.4,44.1-1.2c12.9-3.1,28.2-15.9,31.801-28.8c1.8-7.3,2.399-14.1,1.199-22c-3.1-19.6-1.199-26.9,12.2-41
		C476.404,19.313,474.003,10.113,467.204,11.414z"/>
</g>
<g>
</g>
<g>
</g>
<g>
</g>
<g>
</g>
<g>
</g>
<g>
</g>
<g>
</g>
<g>
</g>
<g>
</g>
<g>
</g>
<g>
</g>
<g>
</g>
<g>
</g>
<g>
</g>
<g>
</g>
</svg>
