<?xml version="1.0" encoding="iso-8859-1"?>
<!-- Generator: Adobe Illustrator 16.0.0, SVG Export Plug-In . SVG Version: 6.00 Build 0)  -->
<!DOCTYPE svg PUBLIC "-//W3C//DTD SVG 1.1//EN" "http://www.w3.org/Graphics/SVG/1.1/DTD/svg11.dtd">
<svg version="1.1" id="Capa_1" xmlns="http://www.w3.org/2000/svg" xmlns:xlink="http://www.w3.org/1999/xlink" x="0px" y="0px"
	 width="544.586px" height="544.586px" viewBox="0 0 544.586 544.586" style="enable-background:new 0 0 544.586 544.586;"
	 xml:space="preserve" fill="#00CCCC">
<g>
	<path d="M527.078,205.164c-15.899-11-32.399,1.2-45.3,15.3c1.2-27.5-1.2-55.1-6.7-82c-0.6-4.3-3.1-6.1-6.1-7.3
		c1.8-4.9-0.601-11-5.5-14.1c-72.8-43.5-170.101-56.9-252.801-61.8c-67.4-3.8-171.4,2.4-192.2,82.5c0,0.6,0,1.8,0,3.1
		c0-11-17.1-11-17.7,0c-8,135.3,44.7,330.5,204.4,348.2c80.2,9.199,164.001-41,214.801-99.801c12.899-15.3,23.899-31.8,32.399-49.6
		c18.4,7.3,41,6.1,56.301-4.9c22-15.899,31.8-44.699,34.899-71C545.979,245.463,545.378,217.364,527.078,205.164z M396.078,131.664
		c-84.5-39.2-211.8-53.2-296.2-6.7c-8.6,4.9-6.1,17.7,2.4,20.2c56.3,18.4,113.8,14.1,172.6,13.5c13.5,0,13.5-20.8,0-20.8
		c-45.9,0-91.2,2.4-135.3-6.1c70.4-23.9,161.601-14.7,228.901,12.2c-61.8,39.2-151.201,30.6-218.5,19.6
		c-33.7-5.5-66.7-14.1-98.5-26.3c-23.9-8.6,39.2-44.1,52.6-48.3c61.8-20.2,134.6-10.4,197.101,0.6c45.899,8,95.5,19,137.699,40.4
		c-61.8,51.4-143.8,71.6-222.8,73.4c-20.2,0.6-160.3-12.9-180.5-48.3c104.7,42.8,271.101,70.4,363.5-6.7
		C403.378,144.563,402.179,134.764,396.078,131.664z M441.378,309.164h-0.6c-7.3-1.8-14.7,6.7-10.4,13.5c1.2,1.8,2.4,3.1,3.7,4.9
		c-9.8,19.6-21.399,38.6-36.7,55.699c-49,56.301-133.4,94.9-208.7,81.4c-123.6-22-164.6-186-168.9-298c2.4,3.7,4.9,7.3,8.6,10.4
		c29.4,26.9,81.4,38.6,120,45.3c103.4,19,225.801-7.3,307.2-76.5C464.578,202.664,460.979,258.364,441.378,309.164z
		 M523.979,266.364c-3.101,19-10.4,38.6-25.7,51.399c-12.2,10.4-23.9,6.7-35.5,1.2c9.8-24.5,15.3-50.8,17.7-77.1
		c6.7-8,14.7-15.3,23.899-20.2c5.5-3.1,10.4-3.7,13.5-1.2C528.278,229.563,525.778,253.463,523.979,266.364z"/>
	<path d="M282.878,283.463c-39.8-15.3-103.4-23.3-142-1.2c-7.3,4.301-5.5,12.9,0,16.5c17.7,58.801,144.4,145,186.7,76.5
		C350.778,337.263,317.078,296.263,282.878,283.463z M243.678,294.463c25.1,4.3,61.801,18.4,67.9,44.101
		c-39.8-19.601-83.2-32.4-126.1-45.301C205.078,291.364,224.078,291.364,243.678,294.463z M157.978,299.963
		c50.8,20.2,102.2,37.9,153,60c-0.601,1.2-0.601,2.4-1.2,4.3C287.179,414.463,183.678,340.963,157.978,299.963z"/>
</g>
<g>
</g>
<g>
</g>
<g>
</g>
<g>
</g>
<g>
</g>
<g>
</g>
<g>
</g>
<g>
</g>
<g>
</g>
<g>
</g>
<g>
</g>
<g>
</g>
<g>
</g>
<g>
</g>
<g>
</g>
</svg>
